<?xml version="1.0" standalone="no"?>
<!DOCTYPE svg PUBLIC "-//W3C//DTD SVG 20010904//EN"
 "http://www.w3.org/TR/2001/REC-SVG-20010904/DTD/svg10.dtd">
<svg version="1.0" xmlns="http://www.w3.org/2000/svg"
 width="204.000000pt" height="192.000000pt" viewBox="0 0 204.000000 192.000000"
 preserveAspectRatio="xMidYMid meet">

<g transform="translate(0.000000,192.000000) scale(0.100000,-0.100000)"
fill="#000000" stroke="none">
<path d="M867 1900 c-349 -62 -644 -322 -747 -655 -30 -96 -40 -171 -40 -291
0 -123 15 -211 54 -318 33 -89 86 -149 86 -96 0 13 7 20 18 20 10 0 33 18 51
40 18 22 37 40 43 40 6 0 18 10 28 23 10 13 34 32 54 42 20 11 36 25 36 33 0
14 49 61 64 62 5 0 32 24 60 53 46 46 51 55 45 82 -11 52 -10 135 2 135 7 0
26 15 43 33 17 17 35 31 39 29 4 -1 28 16 52 39 41 38 95 74 95 63 0 -3 6 1
14 8 8 7 12 16 10 20 -2 4 0 9 6 13 7 4 9 -9 6 -39 -3 -26 -1 -44 4 -41 5 3 6
13 3 22 -4 10 -2 14 4 10 6 -4 25 1 42 10 30 18 30 17 58 -9 22 -21 30 -24 39
-14 9 10 -2 31 -47 92 -71 95 -78 137 -30 185 33 32 88 42 77 13 -3 -9 -6 -18
-6 -20 0 -2 -6 -4 -14 -4 -23 0 -46 -29 -46 -56 0 -31 98 -158 123 -161 10 0
16 1 13 4 -7 7 33 43 48 43 6 0 6 4 -1 11 -14 14 -6 39 13 39 8 0 14 4 14 9 0
5 20 24 45 42 24 19 47 42 50 52 4 9 12 17 18 17 7 0 36 23 66 50 29 28 57 50
61 50 4 0 30 23 58 50 28 28 59 50 69 51 13 1 11 3 -7 9 -26 8 -12 14 28 10
34 -2 26 12 -31 54 -69 51 -174 100 -272 127 -89 24 -311 35 -398 19z m48
-620 c3 -5 1 -10 -4 -10 -6 0 -11 5 -11 10 0 6 2 10 4 10 3 0 8 -4 11 -10z
m35 -17 c0 -5 -11 -13 -25 -20 -28 -13 -34 1 -7 16 21 12 32 14 32 4z"/>
<path d="M1880 1305 c0 -18 -5 -25 -20 -25 -11 0 -20 -4 -20 -9 0 -6 -13 -18
-30 -28 -16 -9 -30 -21 -30 -26 0 -10 -11 -21 -75 -72 -28 -22 -59 -48 -69
-57 -11 -10 -23 -18 -28 -18 -4 0 -8 -7 -8 -15 0 -8 -8 -15 -17 -15 -10 -1
-31 -19 -48 -40 -19 -26 -36 -38 -48 -36 -9 2 -14 0 -11 -5 9 -15 -15 -39 -32
-32 -8 3 -14 -1 -14 -7 0 -13 -57 -88 -94 -125 -96 -94 -250 -201 -299 -209
-27 -4 -67 -52 -67 -81 0 -19 9 -31 35 -46 19 -12 35 -27 35 -35 0 -24 -48
-15 -82 15 -41 37 -45 93 -10 141 13 17 17 29 10 28 -18 -4 -37 -30 -38 -50 0
-10 -4 -18 -10 -18 -5 0 -10 -11 -10 -25 0 -14 -4 -25 -10 -25 -5 0 -10 -6
-10 -13 0 -8 -9 -22 -20 -32 -11 -10 -20 -23 -20 -30 0 -14 -24 -39 -110 -115
-34 -30 -87 -79 -117 -109 -62 -61 -65 -55 42 -105 210 -99 512 -102 735 -7
291 124 500 378 565 686 20 94 22 275 5 360 -12 65 -38 144 -52 160 -4 5 -8
17 -8 27 0 10 -4 18 -10 18 -5 0 -10 -11 -10 -25z"/>
<path d="M860 1160 c0 -5 5 -10 11 -10 5 0 7 5 4 10 -3 6 -8 10 -11 10 -2 0
-4 -4 -4 -10z"/>
<path d="M850 1131 c0 -6 4 -13 10 -16 6 -3 7 1 4 9 -7 18 -14 21 -14 7z"/>
</g>
</svg>
