<svg width="20" height="21" viewBox="0 0 20 21" fill="none" xmlns="http://www.w3.org/2000/svg">
<path fill-rule="evenodd" clip-rule="evenodd" d="M13.725 20.1784V12.5646H16.325L16.714 9.59777H13.724V7.70344C13.724 6.84425 13.967 6.25835 15.221 6.25835H16.819V3.60411C16.0452 3.52238 15.2673 3.48299 14.489 3.48615C12.185 3.48615 10.608 4.8693 10.608 7.40852V9.59777H8V12.5646H10.607V20.1784H1.104C0.494 20.1784 0 19.6927 0 19.0931V1.60262C0 1.00296 0.494 0.517334 1.104 0.517334H18.896C19.506 0.517334 20 1.00296 20 1.60262V19.0931C20 19.6927 19.506 20.1784 18.896 20.1784H13.725Z" fill="#F7F7F8"/>
</svg>
