<svg width="20" height="21" viewBox="0 0 20 21" fill="none" xmlns="http://www.w3.org/2000/svg">
<path d="M17.7778 0.517334C18.3671 0.517334 18.9324 0.747492 19.3491 1.15718C19.7659 1.56686 20 2.12251 20 2.70189V17.9938C20 18.5732 19.7659 19.1288 19.3491 19.5385C18.9324 19.9482 18.3671 20.1784 17.7778 20.1784H2.22222C1.63285 20.1784 1.06762 19.9482 0.650874 19.5385C0.234126 19.1288 0 18.5732 0 17.9938V2.70189C0 2.12251 0.234126 1.56686 0.650874 1.15718C1.06762 0.747492 1.63285 0.517334 2.22222 0.517334H17.7778ZM17.2222 17.4477V11.6586C17.2222 10.7142 16.8406 9.80848 16.1613 9.14069C15.482 8.47291 14.5607 8.09775 13.6 8.09775C12.6556 8.09775 11.5556 8.66573 11.0222 9.51771V8.30528H7.92222V17.4477H11.0222V12.0627C11.0222 11.2217 11.7111 10.5335 12.5667 10.5335C12.9792 10.5335 13.3749 10.6946 13.6666 10.9814C13.9583 11.2682 14.1222 11.6572 14.1222 12.0627V17.4477H17.2222ZM4.31111 6.5904C4.80618 6.5904 5.28098 6.39707 5.63104 6.05294C5.98111 5.7088 6.17778 5.24206 6.17778 4.75538C6.17778 3.73956 5.34444 2.90942 4.31111 2.90942C3.81309 2.90942 3.33547 3.10391 2.98332 3.45009C2.63117 3.79627 2.43333 4.2658 2.43333 4.75538C2.43333 5.77119 3.27778 6.5904 4.31111 6.5904ZM5.85556 17.4477V8.30528H2.77778V17.4477H5.85556Z" fill="#F7F7F8"/>
</svg>
