<svg width="20" height="21" viewBox="0 0 20 21" fill="none" xmlns="http://www.w3.org/2000/svg">
<path fill-rule="evenodd" clip-rule="evenodd" d="M4.28607 0.517334C3.14962 0.517334 2.05969 0.961025 1.25594 1.75084C0.452195 2.54066 0.000436425 3.61195 0 4.72914V15.9649C0 17.0824 0.451566 18.1541 1.25536 18.9443C2.05915 19.7344 3.14933 20.1784 4.28607 20.1784H15.7156C16.852 20.1779 17.9418 19.7338 18.7452 18.9437C19.5487 18.1536 20 17.0821 20 15.9649V4.72914C19.9996 3.61223 19.548 2.54119 18.7446 1.75142C17.9412 0.961643 16.8517 0.517763 15.7156 0.517334H4.28607ZM16.9484 4.73561C16.9484 5.05746 16.8183 5.36613 16.5868 5.59371C16.3553 5.8213 16.0413 5.94915 15.7139 5.94915C15.3865 5.94915 15.0725 5.8213 14.841 5.59371C14.6095 5.36613 14.4795 5.05746 14.4795 4.73561C14.4795 4.41376 14.6095 4.10509 14.841 3.87751C15.0725 3.64992 15.3865 3.52207 15.7139 3.52207C16.0413 3.52207 16.3553 3.64992 16.5868 3.87751C16.8183 4.10509 16.9484 4.41376 16.9484 4.73561ZM10.0025 6.98147C9.09448 6.98147 8.22368 7.33606 7.58163 7.96722C6.93958 8.59839 6.57888 9.45443 6.57888 10.347C6.57888 11.2396 6.93958 12.0957 7.58163 12.7268C8.22368 13.358 9.09448 13.7126 10.0025 13.7126C10.9105 13.7126 11.7813 13.358 12.4233 12.7268C13.0654 12.0957 13.4261 11.2396 13.4261 10.347C13.4261 9.45443 13.0654 8.59839 12.4233 7.96722C11.7813 7.33606 10.9105 6.98147 10.0025 6.98147ZM4.93128 10.347C4.93128 9.0253 5.46539 7.75769 6.41612 6.82308C7.36684 5.88847 8.6563 5.36342 10.0008 5.36342C11.3453 5.36342 12.6348 5.88847 13.5855 6.82308C14.5363 7.75769 15.0704 9.0253 15.0704 10.347C15.0704 11.6688 14.5363 12.9364 13.5855 13.871C12.6348 14.8056 11.3453 15.3307 10.0008 15.3307C8.6563 15.3307 7.36684 14.8056 6.41612 13.871C5.46539 12.9364 4.93128 11.6688 4.93128 10.347Z" fill="#F7F7F8"/>
</svg>
