<svg width="20" height="19" viewBox="0 0 20 19" fill="none" xmlns="http://www.w3.org/2000/svg">
<path d="M16.2519 16.4738C14.6176 16.4738 12.9998 16.1208 11.3984 15.4147C9.79704 14.7087 8.34238 13.702 7.03442 12.3945C5.72645 11.0871 4.71972 9.63584 4.01423 8.04077C3.30873 6.44569 2.95572 4.82446 2.9552 3.17708V2.35339H7.58354L8.30917 6.29533L6.07345 8.55067C6.36109 9.06057 6.68141 9.54432 7.03442 10.0019C7.38743 10.4595 7.76659 10.8845 8.17189 11.2767C8.55105 11.6558 8.96629 12.0188 9.41762 12.3655C9.86895 12.7123 10.3558 13.0357 10.8783 13.3359L13.1532 11.061L17.0756 11.865V16.4738H16.2519Z" fill="#230FBF"/>
</svg>
