<svg width="20" height="21" viewBox="0 0 20 21" fill="none" xmlns="http://www.w3.org/2000/svg">
<path fill-rule="evenodd" clip-rule="evenodd" d="M3.63636 0.517334C2.67194 0.517334 1.74702 0.893956 1.06507 1.56435C0.383116 2.23474 0 3.14399 0 4.09206V16.6036C0 17.5517 0.383116 18.4609 1.06507 19.1313C1.74702 19.8017 2.67194 20.1784 3.63636 20.1784H16.3636C17.3281 20.1784 18.253 19.8017 18.9349 19.1313C19.6169 18.4609 20 17.5517 20 16.6036V4.09206C20 3.14399 19.6169 2.23474 18.9349 1.56435C18.253 0.893956 17.3281 0.517334 16.3636 0.517334H3.63636ZM3.33273 3.64522C3.23321 3.68158 3.14371 3.74028 3.07134 3.81665C2.99898 3.89302 2.94575 3.98494 2.91591 4.0851C2.88607 4.18526 2.88043 4.29089 2.89945 4.39357C2.91847 4.49625 2.96162 4.59314 3.02545 4.67653L8.12909 11.3345L2.75182 17.0049L2.71182 17.0505H4.57273L8.96364 12.4221L12.3382 16.8261C12.4165 16.9281 12.5228 17.0059 12.6445 17.0505H16.6645C16.7639 17.0139 16.8532 16.9551 16.9254 16.8786C16.9976 16.8022 17.0506 16.7102 17.0802 16.6101C17.1099 16.5099 17.1154 16.4044 17.0962 16.3018C17.0771 16.1992 17.0339 16.1024 16.97 16.0192L11.8664 9.36122L17.2882 3.64522H15.4245L11.0336 8.2745L7.65727 3.87043C7.57911 3.76816 7.4728 3.69001 7.35091 3.64522H3.33273ZM13.2236 15.7528L4.93727 4.94285H6.77273L15.0582 15.7519L13.2236 15.7528Z" fill="#F7F7F8"/>
</svg>
